<svg width="149" height="149" viewBox="0 0 149 149" fill="none" xmlns="http://www.w3.org/2000/svg">
<path d="M149 74.5C149 115.645 115.645 149 74.5 149C33.3548 149 0 115.645 0 74.5C0 33.3548 33.3548 0 74.5 0C115.645 0 149 33.3548 149 74.5Z" fill="#3140C8"/>
<path d="M57.6045 85.4814H47.1687V94.5424H41.4358V85.4814H31V79.3288H41.4358V70.2305H47.1687V79.3288H57.6045V85.4814Z" fill="#F5F5F5"/>
<path d="M70.4385 102V47H79.3639V102H70.4385Z" fill="#F5F5F5"/>
<path d="M93.2835 54.8305L97.3686 49.9458V73.4373L95.2403 70.4915H114.19V78.322H95.2403L97.3686 75.4136V99.0542L93.2835 94.1695H118V102H88.2716V47H118V54.8305H93.2835Z" fill="#F5F5F5"/>
</svg>
