<?xml version="1.0" encoding="UTF-8"?>
<svg width="40px" height="40px" version="1.1" viewBox="0 0 700 700" xmlns="http://www.w3.org/2000/svg">
 <g>
  <path d="m210 105c8.3438 0 15.523 5.8867 17.16 14.066l12.57 62.855c7.6406-4.3906 16.531-6.9219 26.098-6.9219h203.34c32.613 0 57.336 29.426 51.715 61.551l-18.375 105c-4.3984 25.121-26.211 43.449-51.715 43.449h-166.59c-25.504 0-47.316-18.328-51.715-43.449l-18.375-105c-0.9375-5.3633-1.0312-10.652-0.38281-15.742-1.6445-2.0898-2.832-4.5898-3.3906-7.375l-14.688-73.434h-38.152c-9.6641 0-17.5-7.8359-17.5-17.5s7.8359-17.5 17.5-17.5zm56.965 230.52c1.4648 8.375 8.7383 14.484 17.238 14.484h166.59c8.5 0 15.773-6.1094 17.238-14.484l18.375-105c1.875-10.707-6.3672-20.516-17.238-20.516h-203.34c-10.871 0-19.113 9.8086-17.238 20.516z" fill-rule="evenodd"/>
  <path d="m455 446.25c0-14.496-11.754-26.25-26.25-26.25s-26.25 11.754-26.25 26.25 11.754 26.25 26.25 26.25 26.25-11.754 26.25-26.25z"/>
  <path d="m306.25 420c14.496 0 26.25 11.754 26.25 26.25s-11.754 26.25-26.25 26.25-26.25-11.754-26.25-26.25 11.754-26.25 26.25-26.25z"/>
 </g>
</svg>
