<svg width="61" height="61" viewBox="0 0 61 61" fill="none" xmlns="http://www.w3.org/2000/svg">
<path d="M60.5 30.5C60.5 47.0685 47.0685 60.5 30.5 60.5C13.9315 60.5 0.5 47.0685 0.5 30.5C0.5 13.9315 13.9315 0.5 30.5 0.5C47.0685 0.5 60.5 13.9315 60.5 30.5Z" stroke="white"/>
<path d="M23.5832 35.4958H24.0832V34.9957V32.4769V31.9769H23.5832H19.8108V28.7521V28.2521H19.3108H16.9638H16.4638V28.7521V31.9769H12.6914H12.1914V32.4769V34.9957V35.4958H12.6914H16.4638V38.7053V39.2053H16.9638H19.3108H19.8108V38.7053V35.4958H23.5832ZM28.3374 41.7584V42.2584H28.8374H32.4914H32.9914V41.7584V19.2416V18.7416H32.4914H28.8374H28.3374V19.2416V41.7584ZM48.3089 38.0526H40.3625V32.5648H46.7489H47.2489V32.0648V28.859V28.359H46.7489H40.3625V22.9474H48.3089H48.8089V22.4474V19.2416V18.7416H48.3089H36.1382H35.6382V19.2416V41.7584V42.2584H36.1382H48.3089H48.8089V41.7584V38.5526V38.0526H48.3089Z" stroke="white"/>
</svg>
