<svg width="79" height="79" viewBox="0 0 79 79" fill="none" xmlns="http://www.w3.org/2000/svg">
<rect width="79" height="79" fill="white"/>
<path d="M20 13C20 9.68629 22.6639 7 25.95 7H70.05C73.3361 7 76 9.68629 76 13V13C76 16.3137 73.3361 19 70.05 19H25.95C22.6639 19 20 16.3137 20 13V13Z" />
<path d="M2 39C2 35.6863 4.69486 33 8.01914 33H69.9809C73.3051 33 76 35.6863 76 39V39C76 42.3137 73.3051 45 69.9809 45H8.01914C4.69486 45 2 42.3137 2 39V39Z" />
<path d="M2 65C2 61.6863 4.66391 59 7.95 59H52.05C55.3361 59 58 61.6863 58 65V65C58 68.3137 55.3361 71 52.05 71H7.95C4.66391 71 2 68.3137 2 65V65Z"/>
</svg>
